<svg width="2942px" height="873px" viewBox="0 0 2942 873" version="1.1" xmlns="http://www.w3.org/2000/svg" xmlns:xlink="http://www.w3.org/1999/xlink">
    <title>Logo 2077 Collective</title>
    <g id="Page-1" stroke="none" stroke-width="1" fill="none" fill-rule="evenodd">
        <g id="Logo-2077-Collective" fill="#000000">
            <g id="Icon---Black" transform="translate(234.500000, 436.500000) scale(1, -1) translate(-234.500000, -436.500000) ">
                <polygon id="Path-43-Copy-26" points="2.99684011 70.494144 74.8911355 6.01698001e-16 469 394.515291 397.086793 465.009435"></polygon>
                <polygon id="Path-43-Copy-25" points="2.99684011 275.989392 74.8911355 205.495248 469 600.010539 397.086793 670.504683"></polygon>
                <polygon id="Path-43-Copy-24" points="0 478.484709 71.8942954 407.990565 466.00316 802.505856 394.089953 873"></polygon>
            </g>
            <g id="Collective" transform="translate(709.000000, 539.662118)">
                <path d="M1343.5,1.33788182 C1382.04461,1.33788182 1416.59441,18.5087696 1439.97378,45.6467735 L1427.17139,67.6412853 C1408.3199,42.1471958 1378.08038,25.6224668 1343.99038,25.6224668 C1286.84484,25.6224668 1240.51923,72.0574398 1240.51923,129.337882 C1240.51923,186.618324 1286.84484,233.053297 1343.99038,233.053297 C1377.24322,233.053297 1406.83237,217.330211 1425.76207,192.896345 L1438.91256,214.245287 C1415.55544,240.67903 1381.46556,257.337882 1343.5,257.337882 C1273.08369,257.337882 1216,200.03033 1216,129.337882 C1216,58.6454338 1273.08369,1.33788182 1343.5,1.33788182 Z" id="Combined-Shape-Copy-70"></path>
                <path d="M127.5,1.33788182 C166.044612,1.33788182 200.594415,18.5087696 223.973776,45.6467735 L211.171387,67.6412853 C192.319904,42.1471958 162.080378,25.6224668 127.990385,25.6224668 C70.8448443,25.6224668 24.5192308,72.0574398 24.5192308,129.337882 C24.5192308,186.618324 70.8448443,233.053297 127.990385,233.053297 C161.243216,233.053297 190.832374,217.330211 209.762065,192.896345 L222.912564,214.245287 C199.555441,240.67903 165.465563,257.337882 127.5,257.337882 C57.0836944,257.337882 0,200.03033 0,129.337882 C0,58.6454338 57.0836944,1.33788182 127.5,1.33788182 Z" id="Combined-Shape-Copy-74"></path>
                <rect id="Rectangle-Copy-529" x="1707" y="2.33788182" width="32" height="254"></rect>
                <polygon id="Path-64-Copy-5" points="1486 2.33788182 1486 29.4135604 1545.2356 29.4135604 1548.68418 256.337882 1577.36866 256.337882 1577.36866 29.4135604 1633.81639 29.4135604 1633.81639 2.33788182"></polygon>
                <path d="M406,2.33788182 C476.140163,2.33788182 533,59.1977186 533,129.337882 C533,199.478045 476.140163,256.337882 406,256.337882 C335.859837,256.337882 279,199.478045 279,129.337882 C279,59.1977186 335.859837,2.33788182 406,2.33788182 Z M406,26.3378818 C349.114671,26.3378818 303,72.4525526 303,129.337882 C303,186.223211 349.114671,232.337882 406,232.337882 C462.885329,232.337882 509,186.223211 509,129.337882 C509,72.4525526 462.885329,26.3378818 406,26.3378818 Z" id="Combined-Shape-Copy-68"></path>
                <polygon id="Path-65-Copy-11" points="613 3.33788182 641.314461 3.33788182 641.314461 228.716435 721.900293 228.716435 721.900293 256.337882 613 256.337882"></polygon>
                <polygon id="Path-65-Copy-10" points="816 3.33788182 844.314461 3.33788182 844.314461 228.716435 924.900293 228.716435 924.900293 256.337882 816 256.337882"></polygon>
                <polygon id="Path-66-Copy-11" points="1142.79962 0.337881818 1142.79962 25.9478678 1029.45747 25.9478678 1029.45747 100.355992 1142.79962 100.355992 1142.79962 126.001348 1029.45747 126.001348 1029.45747 229.466396 1142.79962 229.466396 1142.79962 256.337882 998 256.337882 998 1.67234515"></polygon>
                <polygon id="Path-66-Copy-10" points="2232.79962 0.337881818 2232.79962 25.9478678 2119.45747 25.9478678 2119.45747 100.355992 2232.79962 100.355992 2232.79962 126.001348 2119.45747 126.001348 2119.45747 229.466396 2232.79962 229.466396 2232.79962 256.337882 2088 256.337882 2088 1.67234515"></polygon>
                <polyline id="Path-68-Copy-2" points="1914.55558 260.177141 1924.65079 260.177141 2039.39583 -6.10529869e-15 2007.46697 1.94354133e-12 1920.0551 206.4345 1837.8105 1.94354133e-12 1805.64264 0"></polyline>
            </g>
            <g id="2077" transform="translate(718.332108, 111.577710)">
                <polygon id="Path-72-Copy-3" points="655.938643 362.742695 748.635461 362.742695 951.205658 9.58225958 666.198439 9.58225958 666.198439 80.5928388 821.613499 80.5608554"></polygon>
                <polygon id="Path-72-Copy-2" points="989.938643 362.742695 1082.63546 362.742695 1285.20566 9.58225958 1000.19844 9.58225958 1000.19844 80.5928388 1155.6135 80.5608554"></polygon>
                <path d="M0.218406308,132.188165 L92.5158728,132.188165 C87.0642373,103.936855 109.627908,62.3626551 151.976784,75.3700629 C194.325661,88.3774707 183.870829,148.489779 161.518449,181.29072 C153.409915,193.189566 132.946843,223.139556 91.6672641,266.884235 C64.1475451,296.047355 33.6645925,327.779498 0.218406308,362.080666 L274.301952,362.080666 L274.301952,292.90974 L150.055436,292.90974 C196.112325,250.221211 222.107035,225.729643 228.039565,219.435035 C236.938359,209.993122 278.733987,169.437183 269.697451,107.947859 C260.660915,46.4585344 217.712563,8.53754299 150.055436,1.32051222 C82.3983081,-5.89651855 34.1506773,31.0415505 16.1366758,68.0474901 C4.12734147,92.7181165 -1.17874837,114.098341 0.218406308,132.188165 Z" id="Path-73-Copy"></path>
                <path d="M464.167892,0 C560.077661,0 613.667892,83.921184 613.667892,186.92229 C613.667892,289.923396 560.077661,373.42229 464.167892,373.42229 C368.258124,373.42229 314.667892,289.923396 314.667892,186.92229 C314.667892,83.921184 368.258124,0 464.167892,0 Z M464.167892,73.2743701 C422.800377,73.2743701 398.667892,123.237971 398.667892,185.92229 C398.667892,248.606609 422.800377,299.27437 464.167892,299.27437 C505.535407,299.27437 529.667892,248.606609 529.667892,185.92229 C529.667892,123.237971 505.535407,73.2743701 464.167892,73.2743701 Z" id="Combined-Shape-Copy-75"></path>
            </g>
        </g>
    </g>
</svg>
